<svg xmlns="http://www.w3.org/2000/svg" viewBox="0 0 32 32">
  <defs>
    <linearGradient id="g" x1="0" y1="0" x2="1" y2="1">
      <stop offset="0%" stop-color="#8b5cf6"/>
      <stop offset="100%" stop-color="#3b82f6"/>
    </linearGradient>
  </defs>
  <!-- Cat face silhouette -->
  <path d="M6 8L9 2h3l-1 6h10l-1-6h3l3 6c2 2 3 5 3 8 0 6-5 12-14 12S2 22 2 16c0-3 1-6 4-8z" fill="url(#g)"/>
  <!-- Eyes -->
  <ellipse cx="11" cy="16" rx="2" ry="2.5" fill="white" opacity="0.9"/>
  <ellipse cx="21" cy="16" rx="2" ry="2.5" fill="white" opacity="0.9"/>
  <!-- Nose -->
  <path d="M15 20l1 1.5 1-1.5" fill="none" stroke="white" stroke-width="1.2" stroke-linecap="round" stroke-linejoin="round" opacity="0.8"/>
  <!-- Whiskers -->
  <line x1="2" y1="17" x2="9" y2="18" stroke="white" stroke-width="0.7" opacity="0.5"/>
  <line x1="2" y1="20" x2="9" y2="20" stroke="white" stroke-width="0.7" opacity="0.5"/>
  <line x1="23" y1="18" x2="30" y2="17" stroke="white" stroke-width="0.7" opacity="0.5"/>
  <line x1="23" y1="20" x2="30" y2="20" stroke="white" stroke-width="0.7" opacity="0.5"/>
</svg>
